<svg version="1.1" id="Layer_1" xmlns="http://www.w3.org/2000/svg" xmlns:xlink="http://www.w3.org/1999/xlink" x="0px" y="0px"
	 width="100%" viewBox="0 0 100 100" enable-background="new 0 0 100 100" xml:space="preserve">
<path fill="#000000" opacity="1.000000" stroke="none" 
	d="
M55.000000,101.000000 
	C36.666668,101.000000 18.833340,101.000000 1.000007,101.000000 
	C1.000005,67.666679 1.000005,34.333351 1.000002,1.000021 
	C34.333317,1.000014 67.666634,1.000014 100.999969,1.000007 
	C100.999977,34.333313 100.999977,67.666626 100.999985,100.999969 
	C85.833336,101.000000 70.666664,101.000000 55.000000,101.000000 
M75.436760,83.984032 
	C70.800491,87.264496 65.210678,90.332062 60.401478,86.666664 
	C55.786320,83.149155 51.354492,84.072990 46.814026,84.325897 
	C45.168716,84.417542 42.702850,86.961922 42.372814,88.718147 
	C42.033119,90.525772 43.525700,94.234444 44.767551,94.496101 
	C48.793121,95.344292 53.826309,96.419762 57.046993,94.715630 
	C60.492954,92.892296 63.531281,91.940697 67.207069,91.984741 
	C72.515015,92.048340 77.105087,90.260056 79.850929,85.589745 
	C82.174240,81.638115 83.740494,77.247887 85.915276,73.198654 
	C86.613968,71.897766 88.055519,70.385254 89.377449,70.135559 
	C95.060204,69.062149 97.810753,66.289162 97.964050,60.485600 
	C98.074020,56.322563 98.114624,52.148712 97.945709,47.989452 
	C97.708450,42.147625 95.040680,37.508282 90.819099,37.331539 
	C86.408569,37.146893 86.132355,34.454910 84.965706,31.499451 
	C83.163780,26.934631 81.600891,21.886511 78.488762,18.299578 
	C68.511086,6.799659 55.354244,3.555890 40.977467,7.323621 
	C28.030916,10.716532 19.272717,18.911348 16.719891,32.779888 
	C16.429108,34.359596 14.261611,36.695732 12.865900,36.767509 
	C8.333656,37.000603 5.688777,39.572987 5.228053,43.308769 
	C4.402292,50.004456 3.990129,56.873806 4.555131,63.573593 
	C4.909433,67.774918 8.284442,70.424324 13.165708,70.030838 
	C15.814886,69.817276 18.497770,69.914902 21.160862,70.006126 
	C25.076368,70.140236 27.052996,68.486694 27.006603,64.415031 
	C26.923071,57.083752 27.100842,49.747456 26.890852,42.421242 
	C26.844145,40.791695 25.536865,39.229439 25.000479,37.574455 
	C24.402870,35.730576 23.165966,33.529713 23.684772,31.978312 
	C27.494587,20.585678 35.138767,14.113495 47.531689,12.758582 
	C61.439785,11.238014 73.540688,18.692009 77.838463,29.943819 
	C78.967323,32.899220 80.131348,35.893593 76.446098,38.319599 
	C75.501282,38.941582 75.103737,40.945316 75.080299,42.324879 
	C74.952965,49.821545 74.894081,57.325474 75.125771,64.817192 
	C75.174492,66.392853 76.234474,68.980614 77.347878,69.301857 
	C82.551201,70.803154 81.119141,73.769333 79.530861,76.910309 
	C78.409744,79.127426 77.157623,81.278313 75.436760,83.984032 
z"/>
<path fill="#444847" opacity="1.000000" stroke="none" 
	d="
M75.700378,83.721405 
	C77.157623,81.278313 78.409744,79.127426 79.530861,76.910309 
	C81.119141,73.769333 82.551201,70.803154 77.347878,69.301857 
	C76.234474,68.980614 75.174492,66.392853 75.125771,64.817192 
	C74.894081,57.325474 74.952965,49.821545 75.080299,42.324879 
	C75.103737,40.945316 75.501282,38.941582 76.446098,38.319599 
	C80.131348,35.893593 78.967323,32.899220 77.838463,29.943819 
	C73.540688,18.692009 61.439785,11.238014 47.531689,12.758582 
	C35.138767,14.113495 27.494587,20.585678 23.684772,31.978312 
	C23.165966,33.529713 24.402870,35.730576 25.000479,37.574455 
	C25.536865,39.229439 26.844145,40.791695 26.890852,42.421242 
	C27.100842,49.747456 26.923071,57.083752 27.006603,64.415031 
	C27.052996,68.486694 25.076368,70.140236 21.160862,70.006126 
	C18.497770,69.914902 15.814886,69.817276 13.165708,70.030838 
	C8.284442,70.424324 4.909433,67.774918 4.555131,63.573593 
	C3.990129,56.873806 4.402292,50.004456 5.228053,43.308769 
	C5.688777,39.572987 8.333656,37.000603 12.865900,36.767509 
	C14.261611,36.695732 16.429108,34.359596 16.719891,32.779888 
	C19.272717,18.911348 28.030916,10.716532 40.977467,7.323621 
	C55.354244,3.555890 68.511086,6.799659 78.488762,18.299578 
	C81.600891,21.886511 83.163780,26.934631 84.965706,31.499451 
	C86.132355,34.454910 86.408569,37.146893 90.819099,37.331539 
	C95.040680,37.508282 97.708450,42.147625 97.945709,47.989452 
	C98.114624,52.148712 98.074020,56.322563 97.964050,60.485600 
	C97.810753,66.289162 95.060204,69.062149 89.377449,70.135559 
	C88.055519,70.385254 86.613968,71.897766 85.915276,73.198654 
	C83.740494,77.247887 82.174240,81.638115 79.850929,85.589745 
	C77.105087,90.260056 72.515015,92.048340 67.207069,91.984741 
	C63.531281,91.940697 60.492954,92.892296 57.046993,94.715630 
	C53.826309,96.419762 48.793121,95.344292 44.767551,94.496101 
	C43.525700,94.234444 42.033119,90.525772 42.372814,88.718147 
	C42.702850,86.961922 45.168716,84.417542 46.814026,84.325897 
	C51.354492,84.072990 55.786320,83.149155 60.401478,86.666664 
	C65.210678,90.332062 70.800491,87.264496 75.700378,83.721405 
z"/>
</svg>