
<svg version="1.1" id="Layer_1" xmlns="http://www.w3.org/2000/svg" xmlns:xlink="http://www.w3.org/1999/xlink" x="0px" y="0px"
     width="100%" viewBox="0 0 100 100" enable-background="new 0 0 100 100" xml:space="preserve">
<path fill="#000000" opacity="1.000000" stroke="none" d="M68.000000,101.000000 C45.333332,101.000000 23.166666,101.000000 1.000000,101.000000 C1.000000,67.666664 1.000000,34.333332 1.000000,1.000000 C34.333332,1.000000 67.666664,1.000000 101.000000,1.000000 C101.000000,34.333332 101.000000,67.666664 101.000000,101.000000 C90.166664,101.000000 79.333336,101.000000 68.000000,101.000000 M80.554428,94.682053 C88.481506,91.247467 94.055153,85.919945 95.562454,76.948189 C96.516830,71.267586 93.756615,66.290199 88.465607,65.093063 C83.623039,63.997383 78.659706,63.279163 73.960678,61.747154 C68.733810,60.043056 64.513832,60.600311 61.277348,65.243874 C59.102623,68.364082 56.699337,67.639854 54.036396,66.005859 C47.304256,61.874981 41.583866,56.790546 37.334934,49.998234 C32.834091,42.803215 32.783089,43.017841 38.540436,36.802849 C39.990574,35.237442 41.511311,32.495953 41.124866,30.697847 C39.842022,24.728848 38.012131,18.820797 35.747440,13.146646 C34.810616,10.799438 32.570755,7.951137 30.354181,7.315228 C21.452497,4.761441 8.782166,13.615287 6.931791,22.800068 C5.343153,30.685659 7.562462,37.861889 10.487973,44.912407 C15.825100,57.774937 24.514217,68.289085 34.907337,77.241745 C47.690746,88.253403 61.549603,97.237747 80.554428,94.682053 z"/>
<path fill="#444847" opacity="1.000000" stroke="none" d="M80.139069,94.776611 C61.549603,97.237747 47.690746,88.253403 34.907337,77.241745 C24.514217,68.289085 15.825100,57.774937 10.487973,44.912407 C7.562462,37.861889 5.343153,30.685659 6.931791,22.800068 C8.782166,13.615287 21.452497,4.761441 30.354181,7.315228 C32.570755,7.951137 34.810616,10.799438 35.747440,13.146646 C38.012131,18.820797 39.842022,24.728848 41.124866,30.697847 C41.511311,32.495953 39.990574,35.237442 38.540436,36.802849 C32.783089,43.017841 32.834091,42.803215 37.334934,49.998234 C41.583866,56.790546 47.304256,61.874981 54.036396,66.005859 C56.699337,67.639854 59.102623,68.364082 61.277348,65.243874 C64.513832,60.600311 68.733810,60.043056 73.960678,61.747154 C78.659706,63.279163 83.623039,63.997383 88.465607,65.093063 C93.756615,66.290199 96.516830,71.267586 95.562454,76.948189 C94.055153,85.919945 88.481506,91.247467 80.139069,94.776611 M31.496832,64.997124 C34.207710,67.707176 36.794109,70.557175 39.653423,73.100334 C47.409664,79.998978 55.995407,85.575539 66.065483,88.498741 C76.993423,91.670959 86.768250,86.777916 89.484940,77.095337 C90.400993,73.830399 89.407410,71.846687 86.285431,71.015945 C81.972847,69.868393 77.495079,69.247154 73.295425,67.799103 C69.865059,66.616302 67.444366,67.354530 65.471413,70.063469 C61.894638,74.974495 57.473469,74.717148 52.713406,72.262985 C41.060452,66.254997 32.610748,57.173218 27.776821,45.025604 C26.988972,43.045750 27.518433,38.959023 28.934330,37.955162 C35.541378,33.270828 34.969830,27.825617 32.064831,21.571032 C31.238882,19.792728 31.221148,17.604635 30.258545,15.935662 C29.554604,14.715156 27.781096,13.110669 26.706156,13.261212 C16.916954,14.632170 10.566027,22.676662 12.374965,31.111195 C15.200669,44.286602 21.861635,55.003426 31.496832,64.997124 z"/>
<path fill="#000000" opacity="1.000000" stroke="none" d="M31.246864,64.746765 C21.861635,55.003426 15.200669,44.286602 12.374965,31.111195 C10.566027,22.676662 16.916954,14.632170 26.706156,13.261212 C27.781096,13.110669 29.554604,14.715156 30.258545,15.935662 C31.221148,17.604635 31.238882,19.792728 32.064831,21.571032 C34.969830,27.825617 35.541378,33.270828 28.934330,37.955162 C27.518433,38.959023 26.988972,43.045750 27.776821,45.025604 C32.610748,57.173218 41.060452,66.254997 52.713406,72.262985 C57.473469,74.717148 61.894638,74.974495 65.471413,70.063469 C67.444366,67.354530 69.865059,66.616302 73.295425,67.799103 C77.495079,69.247154 81.972847,69.868393 86.285431,71.015945 C89.407410,71.846687 90.400993,73.830399 89.484940,77.095337 C86.768250,86.777916 76.993423,91.670959 66.065483,88.498741 C55.995407,85.575539 47.409664,79.998978 39.653423,73.100334 C36.794109,70.557175 34.207710,67.707176 31.246864,64.746765 z"/>
</svg>